<mxfile host="app.diagrams.net" modified="2024-05-12T07:08:04.155Z" agent="Mozilla/5.0 (Windows NT 10.0; Win64; x64) AppleWebKit/537.36 (KHTML, like Gecko) Chrome/124.0.0.0 Safari/537.36" etag="jhOo8sZAAzPipT0_k_ac" version="24.4.0" type="device">
  <diagram name="Page-1" id="s-lrIFmVKJkSUpAhL1Im">
    <mxGraphModel dx="1214" dy="634" grid="1" gridSize="10" guides="1" tooltips="1" connect="1" arrows="1" fold="1" page="1" pageScale="1" pageWidth="850" pageHeight="1100" math="0" shadow="0">
      <root>
        <mxCell id="0" />
        <mxCell id="1" parent="0" />
        <mxCell id="S2fv8n7l3cLlQZoefEDG-1" value="" style="shape=umlLifeline;perimeter=lifelinePerimeter;whiteSpace=wrap;html=1;container=1;dropTarget=0;collapsible=0;recursiveResize=0;outlineConnect=0;portConstraint=eastwest;newEdgeStyle={&quot;curved&quot;:0,&quot;rounded&quot;:0};participant=umlActor;" vertex="1" parent="1">
          <mxGeometry x="110" y="40" width="20" height="360" as="geometry" />
        </mxCell>
        <mxCell id="S2fv8n7l3cLlQZoefEDG-4" value="" style="html=1;points=[[0,0,0,0,5],[0,1,0,0,-5],[1,0,0,0,5],[1,1,0,0,-5]];perimeter=orthogonalPerimeter;outlineConnect=0;targetShapes=umlLifeline;portConstraint=eastwest;newEdgeStyle={&quot;curved&quot;:0,&quot;rounded&quot;:0};" vertex="1" parent="S2fv8n7l3cLlQZoefEDG-1">
          <mxGeometry x="5" y="240" width="10" height="80" as="geometry" />
        </mxCell>
        <mxCell id="S2fv8n7l3cLlQZoefEDG-2" value=":Android application" style="shape=umlLifeline;perimeter=lifelinePerimeter;whiteSpace=wrap;html=1;container=1;dropTarget=0;collapsible=0;recursiveResize=0;outlineConnect=0;portConstraint=eastwest;newEdgeStyle={&quot;curved&quot;:0,&quot;rounded&quot;:0};" vertex="1" parent="1">
          <mxGeometry x="270" y="40" width="100" height="360" as="geometry" />
        </mxCell>
        <mxCell id="S2fv8n7l3cLlQZoefEDG-5" value="" style="html=1;points=[[0,0,0,0,5],[0,1,0,0,-5],[1,0,0,0,5],[1,1,0,0,-5]];perimeter=orthogonalPerimeter;outlineConnect=0;targetShapes=umlLifeline;portConstraint=eastwest;newEdgeStyle={&quot;curved&quot;:0,&quot;rounded&quot;:0};" vertex="1" parent="S2fv8n7l3cLlQZoefEDG-2">
          <mxGeometry x="45" y="200" width="10" height="120" as="geometry" />
        </mxCell>
        <mxCell id="S2fv8n7l3cLlQZoefEDG-3" value=":Python Server" style="shape=umlLifeline;perimeter=lifelinePerimeter;whiteSpace=wrap;html=1;container=1;dropTarget=0;collapsible=0;recursiveResize=0;outlineConnect=0;portConstraint=eastwest;newEdgeStyle={&quot;curved&quot;:0,&quot;rounded&quot;:0};" vertex="1" parent="1">
          <mxGeometry x="470" y="40" width="100" height="360" as="geometry" />
        </mxCell>
        <mxCell id="S2fv8n7l3cLlQZoefEDG-6" value="View active users" style="html=1;verticalAlign=bottom;endArrow=block;curved=0;rounded=0;" edge="1" parent="1">
          <mxGeometry x="-0.0015" width="80" relative="1" as="geometry">
            <mxPoint x="125" y="300" as="sourcePoint" />
            <mxPoint x="315" y="300" as="targetPoint" />
            <mxPoint as="offset" />
          </mxGeometry>
        </mxCell>
        <mxCell id="S2fv8n7l3cLlQZoefEDG-7" value="Loop" style="shape=umlFrame;whiteSpace=wrap;html=1;pointerEvents=0;" vertex="1" parent="1">
          <mxGeometry x="400" y="120" width="240" height="180" as="geometry" />
        </mxCell>
        <mxCell id="S2fv8n7l3cLlQZoefEDG-10" value="" style="html=1;points=[[0,0,0,0,5],[0,1,0,0,-5],[1,0,0,0,5],[1,1,0,0,-5]];perimeter=orthogonalPerimeter;outlineConnect=0;targetShapes=umlLifeline;portConstraint=eastwest;newEdgeStyle={&quot;curved&quot;:0,&quot;rounded&quot;:0};" vertex="1" parent="1">
          <mxGeometry x="515" y="146" width="10" height="134" as="geometry" />
        </mxCell>
        <mxCell id="S2fv8n7l3cLlQZoefEDG-11" value="" style="html=1;points=[[0,0,0,0,5],[0,1,0,0,-5],[1,0,0,0,5],[1,1,0,0,-5]];perimeter=orthogonalPerimeter;outlineConnect=0;targetShapes=umlLifeline;portConstraint=eastwest;newEdgeStyle={&quot;curved&quot;:0,&quot;rounded&quot;:0};" vertex="1" parent="1">
          <mxGeometry x="520" y="180" width="10" height="40" as="geometry" />
        </mxCell>
        <mxCell id="S2fv8n7l3cLlQZoefEDG-12" value="Update active&amp;nbsp;&lt;div&gt;users list&lt;/div&gt;" style="html=1;align=left;spacingLeft=2;endArrow=block;rounded=0;edgeStyle=orthogonalEdgeStyle;curved=0;rounded=0;" edge="1" target="S2fv8n7l3cLlQZoefEDG-11" parent="1">
          <mxGeometry relative="1" as="geometry">
            <mxPoint x="525" y="160" as="sourcePoint" />
            <Array as="points">
              <mxPoint x="555" y="190" />
            </Array>
          </mxGeometry>
        </mxCell>
        <mxCell id="S2fv8n7l3cLlQZoefEDG-13" value="Broadcast list to all devices" style="html=1;verticalAlign=bottom;endArrow=block;curved=0;rounded=0;" edge="1" parent="1">
          <mxGeometry width="80" relative="1" as="geometry">
            <mxPoint x="514.9999999999999" y="260" as="sourcePoint" />
            <mxPoint x="325" y="260" as="targetPoint" />
          </mxGeometry>
        </mxCell>
        <mxCell id="S2fv8n7l3cLlQZoefEDG-14" value="Display active users" style="html=1;verticalAlign=bottom;endArrow=open;dashed=1;endSize=8;curved=0;rounded=0;" edge="1" parent="1">
          <mxGeometry relative="1" as="geometry">
            <mxPoint x="315" y="339" as="sourcePoint" />
            <mxPoint x="125" y="339" as="targetPoint" />
          </mxGeometry>
        </mxCell>
      </root>
    </mxGraphModel>
  </diagram>
</mxfile>
